<?xml version="1.0" encoding="utf-8"?>
<!-- Generator: Adobe Illustrator 22.1.0, SVG Export Plug-In . SVG Version: 6.00 Build 0)  -->
<svg version="1.1" id="Ebene_1" xmlns="http://www.w3.org/2000/svg" xmlns:xlink="http://www.w3.org/1999/xlink" x="0px" y="0px"
	 viewBox="0 0 695 240" style="enable-background:new 0 0 695 240;" xml:space="preserve">
<style type="text/css">
	.st0{fill:#C01533;}
	.st1{fill:#8B8771;}
	.st2{fill:#FFFFFF;}
</style>
<g>
	<g>
		<path class="st0" d="M591.9,109c-12.2,0-19.7,12.2-19.7,24.3c0,1.9,0.2,3.4,0.5,4.7c18.5-3.6,27.5-13.4,27.5-21.3
			C600.2,111.9,597.1,109,591.9,109"/>
	</g>
	<g>
		<path class="st0" d="M427.3,132.8c0.8-11.2,3-22.4,5-31.3c6.3-27.3,16.9-48.1,32-48.1c10.4,0,14.3,7.3,14.4,15.8
			c0.2,22.6-18.2,50.3-40,67.7c-0.3,10.8,3.2,15.9,9.6,15.9c11.4,0,22.9-11.7,32.7-35.2c1.3-3.2,2.6-6.9,4-10.5
			c2-4.9,12.3-2.1,10.8,2.9c-3.2,10.5-8.2,24.4-8.2,33.6c0,6.2,3.1,8.7,7.7,8.7c6.3-0.1,11.6-4.6,15.3-9.1c0,0,2.6-13.1,3.4-16.7
			c10.7-51,23.1-73.1,39.4-73.1c9.7,0,14.6,6,14.6,15.6c0,17.7-12.2,38-35.6,66c7.3,2.5,15.3,4.4,25.6,4.4h2.6
			c-0.2-1.4-0.4-4-0.4-6.1c0-19.8,14.2-34,31.7-34c11.5,0,20.3,5.4,20.3,17.1c0,14.7-15.6,26.4-35.3,30.5c3.1,3.6,9.1,6.3,17.5,6.3
			c18.9,0,33.5-9.3,43.1-18.3V0H397.4v148.8C408.5,144.7,418.7,139.1,427.3,132.8 M497.9,78c4.5,0,8,3.6,7.8,8.2
			c-0.2,4.5-4,8.1-8.5,8.1s-8-3.6-7.8-8.1S493.4,78,497.9,78"/>
	</g>
	<g>
		<path class="st0" d="M553.1,63c-5.8,0-17.4,16.7-27.6,64.7c17.1-21.7,31-46.2,31-59C556.6,65.4,555.6,63,553.1,63"/>
	</g>
	<g>
		<path class="st0" d="M594.2,163.5c-16.5,0-25.7-6.4-30.7-14.5c-1.6,0.1-3.5,0.1-5.3,0.1c-8.7,0-16.5-1.2-22.1-3
			c4.5,9.5,7.4,22,7.3,33.3c-0.1,21.6-7.8,35.7-22.6,35.7c-10.6,0-16.6-7.7-16.8-23.6c-0.1-11.6,1.4-21.2,3.7-34.2
			c-3.6,3-8.6,5.1-14.7,5.2c-10.9,0-16.9-6.9-17.4-16.4c-8.5,11.4-18.6,16.9-29.3,16.9c-11.6,0-17.8-7.4-19-18.6
			c-8.3,5.3-18.5,10.8-30,14.9V240h239.9v-91.9C624.6,158.3,609.7,163.5,594.2,163.5"/>
	</g>
	<g>
		<path class="st0" d="M464.3,63c-6.2,0-17.3,18.7-24.1,59.7c19.5-19.1,27.5-43.7,27.5-53.6C467.7,64.6,466.4,63,464.3,63"/>
	</g>
	<g>
		<path class="st0" d="M521.8,145.8c-2.6,11.8-6,32.6-6,45.8c0,7.6,1.7,12.6,6.1,12.6c7.7,0,10-13.6,10-23.7c0-13-3.4-26.8-8.6-36.3
			L521.8,145.8z"/>
	</g>
	<g>
		<path class="st1" d="M12.7,135.1c0,3,0.3,5.8,1,8.4c0.6,2.6,1.7,4.9,3.1,6.8c1.4,1.9,3.2,3.5,5.5,4.6s4.9,1.7,8.1,1.7
			c2.3,0,4.3-0.3,6.1-1s3.3-1.4,4.6-2.3c1.5-0.9,2.9-2.1,4-3.3c0.7,0.7,1.5,1.9,2.6,3.4c1.1,1.6,1.6,3,1.6,4.3
			c0,0.4-0.1,0.8-0.3,1.3c-0.4,0.8-1.1,1.7-2.3,2.7c-1.6,1.4-3.9,2.6-6.9,3.6s-6.7,1.5-11,1.5c-2.8,0-5.8-0.4-9.1-1.2
			s-6.4-2.3-9.3-4.6s-5.3-5.5-7.2-9.6c-2-4.1-2.9-9.5-2.9-16.2c0-6.2,1-11.4,3.1-15.4c2-4,4.6-7.2,7.5-9.6c3-2.3,6.2-3.9,9.5-4.9
			c3.3-0.9,6.3-1.4,8.9-1.4c3.1,0,6,0.3,8.5,1s4.7,1.5,6.5,2.6c1.7,1,3,2,3.8,3.1c0.8,1,1.3,2.1,1.3,3.2c0,2.1-1.6,5.1-3.5,7.6
			c-1.4-1.6-3.4-3.2-6.1-4.7c-2.7-1.6-5.7-2.4-9-2.4c-3.2,0-5.9,0.5-8.1,1.6c-2.3,1-4.1,2.5-5.6,4.4s-2.5,4.1-3.2,6.7
			C13,129.5,12.7,132.2,12.7,135.1"/>
	</g>
	<g>
		<path class="st1" d="M110.5,163.5c-0.9-1.2-1.6-3.1-1.9-5.5c-0.4-2.6-0.6-6.2-0.6-10.9v-20.9c0-3.7-0.4-6.9-1.1-9.7
			c-0.7-2.8-2-5.2-3.8-7c-1.8-1.9-4.2-3.3-7.1-4.2c-3-0.9-6.6-1.4-11-1.4c-2.6,0-5.3,0.2-7.9,0.7c-2.7,0.4-5.2,1-7.4,1.8
			c-2.2,0.8-4,1.7-5.4,2.7s-2.1,2.1-2.1,3.2c0,0.8,0.3,1.9,0.8,3.4s1.2,2.9,2.1,4.2c2.6-1.8,5.3-3.2,8.1-4.3
			c2.8-1.1,6.2-1.6,10.2-1.6c4.9,0,8.2,0.9,9.9,2.8c1.7,1.9,2.6,4.6,2.6,8.1v2c-0.7-0.1-1.6-0.1-2.6-0.1h-2.7
			c-3.1,0.1-6.5,0.4-10.2,1c-3.7,0.6-7.2,1.7-10.5,3.3s-6,3.8-8.2,6.5c-2.2,2.8-3.3,6.3-3.3,10.7c0,3.6,0.6,6.6,1.8,8.9
			c1.2,2.3,2.8,4.2,4.6,5.5c1.9,1.4,3.9,2.3,6.2,2.9c2.3,0.5,4.6,0.8,6.8,0.8c4.7,0,8.4-0.7,11.3-2.2s5.3-3.2,7.4-5.3
			c0.3,2.5,1.3,4.2,3.1,5.2c1.8,1,3.9,1.5,6.3,1.5c0.8,0,1.5-0.1,2.2-0.1c0.7-0.1,1.3-0.2,1.8-0.3c0.4-0.1,0.7-0.5,0.7-0.9
			C110.7,163.9,110.6,163.7,110.5,163.5 M96,147.6c0,1-0.4,2-1.3,3.1c-0.8,1.1-2,2-3.4,3c-1.4,0.9-3.1,1.7-5,2.3s-3.8,0.9-5.9,0.9
			c-3.9,0-6.6-0.9-8-2.8c-1.4-1.9-2.2-4.1-2.2-6.5c0-2.6,0.7-4.7,2-6.3c1.4-1.6,3.1-2.8,5.3-3.7c2.1-0.9,4.5-1.5,7.1-1.8
			s5.2-0.5,7.7-0.5H96V147.6z"/>
	</g>
	<g>
		<path class="st1" d="M175.2,165h-12.4v-34.1c0-2.3-0.1-4.5-0.2-6.5c-0.1-2-0.6-3.8-1.3-5.2c-0.7-1.4-1.9-2.6-3.5-3.3
			c-1.6-0.8-3.8-1.2-6.7-1.2c-4,0-7.5,0.8-10.4,2.7c-2.9,1.9-4.3,4.3-4.3,7.1V165H124v-59.9c0.2,0,0.4,0,0.6,0s0.5,0,0.8,0
			s0.6,0,1,0c2.2,0,4.2,0.5,6,1.5s2.9,2.8,3.2,5.2c1.9-2,4.6-3.9,7.9-5.5c3.3-1.6,7.3-2.4,11.8-2.4c5.7,0,10.1,1.3,13.1,3.8
			c3,2.6,5,5.8,6,9.6c0.4,1.7,0.7,3.6,0.8,5.7s0.1,4.1,0.1,6.1V165H175.2z"/>
	</g>
	<g>
		<path class="st1" d="M239.6,163.5c-0.9-1.2-1.6-3.1-1.9-5.5c-0.4-2.6-0.6-6.2-0.6-10.9v-20.9c0-3.7-0.3-6.9-1.1-9.7
			c-0.7-2.8-2-5.2-3.8-7c-1.8-1.9-4.2-3.3-7.1-4.2c-3-0.9-6.6-1.4-11.1-1.4c-2.6,0-5.3,0.2-7.9,0.7c-2.7,0.4-5.1,1-7.3,1.8
			s-4,1.7-5.4,2.7s-2.1,2.1-2.1,3.2c0,0.8,0.3,1.9,0.8,3.4s1.3,2.9,2.2,4.2c2.6-1.8,5.3-3.2,8.1-4.3c2.8-1.1,6.2-1.6,10.3-1.6
			c4.9,0,8.2,0.9,9.9,2.8s2.6,4.6,2.6,8.1v2c-0.8-0.1-1.6-0.1-2.7-0.1h-2.6c-3.1,0.1-6.5,0.4-10.3,1c-3.7,0.6-7.2,1.7-10.5,3.3
			s-6,3.8-8.2,6.5c-2.2,2.8-3.3,6.3-3.3,10.7c0,3.6,0.6,6.6,1.8,8.9c1.2,2.3,2.8,4.2,4.6,5.5c1.9,1.4,3.9,2.3,6.2,2.9
			c2.3,0.5,4.6,0.8,6.8,0.8c4.7,0,8.4-0.7,11.3-2.2c2.9-1.5,5.3-3.2,7.4-5.3c0.3,2.5,1.4,4.2,3.1,5.2c1.8,1,3.9,1.5,6.3,1.5
			c0.8,0,1.5-0.1,2.2-0.1c0.7-0.1,1.3-0.2,1.8-0.3c0.4-0.1,0.7-0.5,0.7-0.9S239.7,163.7,239.6,163.5 M225.2,147.6c0,1-0.4,2-1.2,3.1
			s-2,2-3.4,3c-1.4,0.9-3.1,1.7-5,2.3s-3.8,0.9-5.9,0.9c-3.9,0-6.5-0.9-8-2.8c-1.4-1.9-2.1-4.1-2.1-6.5c0-2.6,0.7-4.7,2-6.3
			c1.4-1.6,3.1-2.8,5.3-3.7c2.1-0.9,4.5-1.5,7.1-1.8s5.2-0.5,7.8-0.5h3.4L225.2,147.6L225.2,147.6z"/>
	</g>
	<g>
		<path class="st1" d="M306,163.5c-0.9-1.2-1.6-3.1-1.9-5.5c-0.4-2.6-0.6-6.2-0.6-10.9V85.5c0-2.2-0.2-3.9-0.7-5.2
			c-0.5-1.3-1.2-2.4-2-3.2c-0.8-0.8-1.8-1.3-2.9-1.5s-2.2-0.4-3.2-0.4c-0.5,0-1.2,0-1.9,0c-0.7,0-1.2,0.1-1.6,0.1V110
			c-1.3-1.3-3.3-2.5-6.1-3.8c-2.7-1.3-6.2-1.9-10.4-1.9c-3.2,0-6.3,0.6-9.3,1.9s-5.6,3.2-7.8,5.7c-2.2,2.5-4,5.8-5.4,9.8
			s-2,8.8-2,14.3c0,5.8,0.7,10.7,2.1,14.6c1.4,3.9,3.2,7,5.6,9.4c2.3,2.4,5,4,7.9,5.1c3,1,6.1,1.5,9.3,1.5c4.4,0,8.1-0.9,10.9-2.6
			c2.9-1.7,4.9-3.4,6.1-5.1c0.3,2.5,1.4,4.2,3.1,5.2c1.8,1,3.9,1.5,6.3,1.5c0.7,0,1.5,0,2.2-0.1s1.3-0.2,1.8-0.3
			c0.4-0.1,0.7-0.5,0.7-0.9S306.1,163.7,306,163.5 M291.1,148.7c0,1-0.3,1.9-0.9,2.9s-1.5,1.8-2.7,2.6c-1.2,0.7-2.6,1.3-4.2,1.8
			s-3.4,0.7-5.3,0.7c-2.8,0-5.2-0.5-7.1-1.6s-3.5-2.7-4.7-4.6c-1.2-2-2-4.3-2.5-7s-0.7-5.6-0.7-8.8c0-6.8,1.3-12,3.9-15.5
			s6.1-5.2,10.6-5.2c1.9,0,3.6,0.2,5.1,0.6s2.8,1,4,1.6c1.1,0.7,2.1,1.3,2.8,2.1c0.7,0.7,1.2,1.3,1.7,1.7L291.1,148.7L291.1,148.7z"
			/>
	</g>
	<g>
		<path class="st1" d="M368.4,163.5c-0.9-1.2-1.6-3.1-1.9-5.5c-0.4-2.6-0.6-6.2-0.6-10.9v-20.9c0-3.7-0.3-6.9-1.1-9.7
			c-0.7-2.8-2-5.2-3.8-7c-1.8-1.9-4.2-3.3-7.1-4.2c-3-0.9-6.6-1.4-11-1.4c-2.6,0-5.3,0.2-7.9,0.7c-2.7,0.4-5.2,1-7.3,1.8
			c-2.2,0.8-4,1.7-5.4,2.7s-2.1,2.1-2.1,3.2c0,0.8,0.3,1.9,0.8,3.4s1.2,2.9,2.1,4.2c2.6-1.8,5.3-3.2,8.1-4.3
			c2.8-1.1,6.2-1.6,10.3-1.6c4.9,0,8.2,0.9,9.9,2.8c1.7,1.9,2.6,4.6,2.6,8.1v2c-0.8-0.1-1.7-0.1-2.7-0.1h-2.6
			c-3.1,0.1-6.5,0.4-10.3,1c-3.7,0.6-7.2,1.7-10.5,3.3s-6,3.8-8.2,6.5c-2.2,2.8-3.3,6.3-3.3,10.7c0,3.6,0.6,6.6,1.8,8.9
			c1.2,2.3,2.8,4.2,4.6,5.5c1.9,1.4,3.9,2.3,6.2,2.9c2.3,0.5,4.6,0.8,6.8,0.8c4.7,0,8.4-0.7,11.3-2.2s5.3-3.2,7.4-5.3
			c0.3,2.5,1.4,4.2,3.2,5.2c1.8,1,3.9,1.5,6.3,1.5c0.7,0,1.5-0.1,2.2-0.1c0.7-0.1,1.3-0.2,1.8-0.3c0.4-0.1,0.7-0.5,0.7-0.9
			C368.5,163.9,368.5,163.7,368.4,163.5 M353.9,147.6c0,1-0.4,2-1.3,3.1c-0.8,1.1-2,2-3.4,3c-1.4,0.9-3.1,1.7-5,2.3
			s-3.8,0.9-5.9,0.9c-3.9,0-6.5-0.9-8-2.8c-1.4-1.9-2.2-4.1-2.2-6.5c0-2.6,0.7-4.7,2-6.3c1.4-1.6,3.1-2.8,5.3-3.7
			c2.1-0.9,4.5-1.5,7.1-1.8s5.2-0.5,7.7-0.5h3.5L353.9,147.6L353.9,147.6z"/>
	</g>
	<g>
		<path class="st2" d="M497.1,94.3c4.5,0,8.3-3.6,8.5-8.1s-3.3-8.2-7.8-8.2s-8.3,3.6-8.5,8.2C489.1,90.7,492.6,94.3,497.1,94.3"/>
	</g>
	<g>
		<path class="st2" d="M594.2,153.4c-8.4,0-14.5-2.6-17.5-6.3c19.7-4.1,35.3-15.8,35.3-30.5c0-11.8-8.9-17.1-20.3-17.1
			c-17.5,0-31.7,14.1-31.7,34c0,2.1,0.2,4.7,0.4,6.1h-2.6c-10.3,0-18.3-1.9-25.6-4.5c23.4-28.1,35.6-48.3,35.6-66
			c0-9.6-4.9-15.6-14.6-15.6c-16.2,0-28.6,22.2-39.4,73.2c-0.7,3.6-3.4,16.7-3.4,16.7c-3.7,4.4-8.9,9-15.3,9.1
			c-4.6,0.1-7.7-2.5-7.7-8.7c0-9.2,5.1-23.1,8.2-33.7c1.5-4.9-8.8-7.8-10.8-2.9c-1.4,3.6-2.7,7.2-4,10.5
			c-9.8,23.5-21.3,35.2-32.7,35.2c-6.4,0-9.8-5-9.6-15.9c21.9-17.4,40.2-45,40-67.7c-0.1-8.6-4-15.9-14.4-15.9
			c-15,0-25.7,20.8-32,48.1c-2,8.9-4.2,20.1-5,31.3c-8.6,6.2-18.8,11.8-29.9,15.9v10.6c11.6-4.1,21.7-9.7,30-14.9
			c1.2,11.1,7.4,18.6,19,18.6c10.6,0,20.8-5.5,29.3-16.9c0.4,9.5,6.5,16.5,17.4,16.4c6,0,11-2.2,14.6-5.2c-2.3,13-3.8,22.6-3.7,34.2
			c0.2,15.9,6.2,23.6,16.8,23.6c14.8,0,22.6-14.2,22.6-35.8c0-11.3-2.9-23.8-7.3-33.3c5.6,1.8,13.5,3,22.1,3c1.7,0,3.6,0,5.3-0.1
			c5,8.1,14.2,14.5,30.7,14.5c15.5,0,30.3-5.3,43.1-15.4v-13C627.7,144.1,613.1,153.4,594.2,153.4 M464.3,63c2.2,0,3.4,1.6,3.4,6.1
			c0,9.8-8,34.5-27.5,53.6C447,81.7,458,63,464.3,63 M553.1,63c2.5,0,3.5,2.4,3.5,5.8c0,12.7-13.9,37.3-31.1,58.9
			C535.6,79.7,547.3,63,553.1,63 M521.9,204.2c-4.4,0-6.1-4.9-6.1-12.5c0-13.2,3.5-34,6-45.8l1.6-1.6c5.2,9.5,8.6,23.2,8.6,36.3
			C531.9,190.6,529.6,204.2,521.9,204.2 M572.2,133.4c0-12.2,7.5-24.3,19.7-24.3c5.2,0,8.4,2.9,8.4,7.8c0,7.8-9,17.7-27.6,21.2
			C572.4,136.7,572.2,135.3,572.2,133.4"/>
	</g>
</g>
<polygon class="st1" points="690.3,0.8 682.8,21 675.3,0.8 670.8,0.8 670.8,24.8 673.8,24.8 673.8,4.8 673.9,4.8 681.3,24.8 
	684.3,24.8 691.6,4.8 691.8,4.8 691.8,24.8 694.8,24.8 694.8,0.8 "/>
<polygon class="st1" points="648.8,3.5 656.9,3.5 656.9,24.8 659.9,24.8 659.9,3.5 668.1,3.5 668.1,0.8 648.8,0.8 "/>
</svg>
